<?xml version="1.0" encoding="UTF-8"?><svg id="Capa_2" xmlns="http://www.w3.org/2000/svg" viewBox="0 0 298.09062 298.09062"><defs><style>.cls-1{opacity:.04;}.cls-1,.cls-2{fill:#fff8d5;}.cls-3{opacity:.03;}.cls-3,.cls-4,.cls-5,.cls-6,.cls-7{fill:#000c29;}.cls-4,.cls-8{opacity:.05;}.cls-9,.cls-10,.cls-11,.cls-12{opacity:.07;}.cls-9,.cls-13,.cls-14,.cls-15,.cls-16{fill:#315600;}.cls-10,.cls-17,.cls-18{fill:#fff8c2;}.cls-11{fill:#001a1c;}.cls-2,.cls-5,.cls-19{opacity:.06;}.cls-17{opacity:.11;}.cls-20{fill:#004749;}.cls-21{fill:#008c33;}.cls-22{fill:#fff9b8;}.cls-23{fill:#c2ef06;}.cls-24{fill:#237900;}.cls-25{fill:#6eac00;}.cls-26{fill:#2ca500;}.cls-27{fill:#3b7f00;}.cls-28{fill:#76854b;}.cls-18{opacity:.15;}.cls-6{opacity:.13;}.cls-29{fill:#00222c;opacity:.14;}.cls-14{opacity:.21;}.cls-15{opacity:.19;}.cls-16{opacity:.2;}.cls-30{opacity:.22;}.cls-31{opacity:.81;}.cls-32{opacity:.02;}.cls-33{fill:#91a397;opacity:.59;}.cls-34{opacity:.85;}.cls-34,.cls-35,.cls-36,.cls-37{fill:#316300;}.cls-38{fill:#fffda2;opacity:.76;}.cls-7,.cls-35{opacity:.3;}.cls-39{fill:#205600;opacity:.26;}.cls-36{opacity:.45;}.cls-37{opacity:.41;}</style></defs><g id="Capa_1-2"><circle class="cls-20" cx="149.04531" cy="149.04531" r="149.04531"/></g><g id="Capa_5"><circle class="cls-7" cx="149.04531" cy="149" r="143.04807"/><g><path class="cls-3" d="M140.01255,87.86453c0,36.76141-26.97332,57.40359-29.63085,59.36343-2.65752-1.95984-29.63085-22.60203-29.63086-59.36343s26.97334-57.40363,29.63086-59.36345c2.65752,1.95982,29.63085,22.60205,29.63085,59.36345Z"/><path class="cls-4" d="M135.81909,86.66523c0,31.75441-23.29949,49.58508-25.59505,51.27799-2.29556-1.69291-25.59505-19.52358-25.59506-51.27799s23.29951-49.58512,25.59506-51.27801c2.29556,1.69289,25.59505,19.52359,25.59505,51.27801Z"/></g><g><path class="cls-3" d="M194.14178,155.04829c0,36.76141-26.97332,57.40359-29.63085,59.36343-2.65752-1.95984-29.63085-22.60203-29.63086-59.36343s26.97334-57.40363,29.63086-59.36345c2.65752,1.95982,29.63085,22.60205,29.63085,59.36345Z"/><path class="cls-4" d="M189.94832,153.84899c0,31.75441-23.29949,49.58508-25.59505,51.27799-2.29556-1.69291-25.59505-19.52358-25.59506-51.27799s23.29951-49.58512,25.59506-51.27801c2.29556,1.69289,25.59505,19.52359,25.59505,51.27801Z"/></g><g><path class="cls-3" d="M85.74431,155.07575c0,36.76141-26.97332,57.40359-29.63085,59.36343-2.65752-1.95984-29.63085-22.60203-29.63086-59.36343s26.97334-57.40363,29.63086-59.36345c2.65752,1.95982,29.63085,22.60205,29.63085,59.36345Z"/><path class="cls-4" d="M81.55085,153.87645c0,31.75441-23.29949,49.58508-25.59505,51.27799-2.29556-1.69291-25.59505-19.52358-25.59506-51.27799s23.29951-49.58512,25.59506-51.27801c2.29556,1.69289,25.59505,19.52359,25.59505,51.27801Z"/></g><g><path class="cls-3" d="M227.09517,120.57536c8.64879,16.27403,1.56434,31.75815,.84896,33.25099-1.63755-.24238-18.43492-3.03457-27.08371-19.30859s-1.56434-31.75817-.84896-33.251c1.63755,.24237,18.43492,3.03457,27.08371,19.3086Z"/><path class="cls-4" d="M224.9566,121.03103c7.47081,14.05746,1.35127,27.43261,.73333,28.72212-1.41451-.20937-15.92404-2.62125-23.39485-16.67871-7.47081-14.05746-1.35127-27.43263-.73333-28.72213,1.41451,.20936,15.92404,2.62126,23.39485,16.67872Z"/></g><g class="cls-31"><path class="cls-3" d="M252.42155,133.52446c-9.5683,15.75097-26.4982,17.57478-28.14696,17.7228-.62854-1.53142-6.8129-17.39653,2.7554-33.1475s26.49821-17.57479,28.14697-17.72281c.62855,1.53142,6.81289,17.39654-2.75541,33.14751Z"/><path class="cls-4" d="M250.93696,131.91913c-8.26507,13.60565-22.88908,15.18105-24.31328,15.30891-.54293-1.32284-5.88497-15.02708,2.38011-28.63273s22.88909-15.18106,24.31328-15.30892c.54294,1.32283,5.88496,15.02708-2.38011,28.63274Z"/></g></g><g id="Capa_3"><g><path class="cls-33" d="M57.50765,210.19058c14.6802-20.82527,37.1707-51.25847,52.3679-72.11616,12.77397,19.23378,29.79935,45.0953,42.43416,64.42971l13.72782,21.07204-2.33002-.17043c19.7573-22.31168,41.56582-46.59333,61.62259-68.78344l.26826-.2974,.38309-.00215c7.0986-.0511,21.49854-.10301,28.60418-.07319,7.08667-.00107,21.50964,.02096,28.60648,.07418-12.75175,.48351-30.13793,1.00715-42.88615,1.41155l-14.29699,.36289,.65105-.29939c-7.55301,8.70027-22.71049,26.18405-30.28239,34.85971-10.5558,12.06728-21.12346,24.12728-31.74532,36.13656l-1.05482-1.61339-13.76219-21.04968c-12.22702-18.76966-28.88518-44.49489-40.97437-63.35279l1.93036,.06111c-15.14888,20.12722-37.98531,49.71506-53.26364,69.35028h0Z"/><path class="cls-29" d="M80.36613,178.43854c-8.27765,11.35852-16.33881,22.50323-22.85846,31.75201,6.9455-8.92609,15.45343-19.90991,24.09052-31.12579-.41821-.16992-.82886-.38153-1.23206-.62622Z"/><path class="cls-29" d="M135.06602,176.21015c-8.69611-13.22144-17.67743-26.8233-25.19049-38.13574-.51776,.71063-1.06378,1.45837-1.5979,2.19049,1.13812,.96545,2.03241,2.17914,2.52808,3.5766,6.63153,10.33044,14.40381,22.37085,21.99115,34.08533,.68311-.69769,1.45007-1.28851,2.26917-1.71667Z"/><path class="cls-29" d="M194.52323,192.77515c-.73956-.51971-1.38879-1.1297-1.90021-1.81232-9.06049,10.11328-18.07538,20.21722-26.72968,29.97961,.25812,1.56067,.22968,3.11737-.12128,4.55872,9.61621-10.87933,19.1897-21.79846,28.75116-32.72601Z"/><path class="cls-29" d="M243.75956,154.24725c-6.14905,.01251-12.82648,.04163-17.17603,.07141,.52972,.52808,1.00189,1.10638,1.39185,1.72961l12.33057-.31299c1.06848-.03387,2.1795-.06891,3.30768-.10437,.00958-.45844,.06116-.92133,.14594-1.38367Z"/><path class="cls-29" d="M67.61509,196.02673c-3.61615,5.02155-7.03674,9.80774-10.10742,14.16382,3.25073-4.17773,6.85199-8.81732,10.64032-13.70941-.1828-.14178-.36249-.29004-.5329-.45441Z"/><path class="cls-29" d="M118.02085,153.0556c.39325-.28912,.82684-.53558,1.28162-.75201-3.29657-4.98608-6.47699-9.78741-9.42694-14.22919-.51776,.71063-1.06378,1.45837-1.5979,2.19049,1.13812,.96545,2.03241,2.17914,2.52808,3.5766,2.02832,3.15973,4.17188,6.49188,6.37573,9.91327,.26099-.24182,.53699-.47681,.83942-.69916Z"/><path class="cls-29" d="M178.7617,210.75318c-.49579-.25104-.97852-.54272-1.43909-.88416-.32172-.23853-.61115-.5069-.88593-.78754-3.55505,3.99091-7.08344,7.95801-10.54333,11.86096,.25812,1.56067,.22968,3.11737-.12128,4.55872,4.33832-4.9082,8.66583-9.82648,12.98962-14.74799Z"/><path class="cls-29" d="M233.76683,154.27973c-2.69641,.01184-5.18982,.02527-7.18329,.03894,.52972,.52808,1.00189,1.10638,1.39185,1.72961,1.42413-.03613,3.44397-.0874,5.43762-.138,.06085-.56232,.17871-1.1076,.35382-1.63055Z"/></g></g><g id="Capa_2-2"><g><path class="cls-21" d="M185.76002,153.87644c0,27.13845-18.39594,43.39762-21.06094,45.67284-2.665-2.27521-21.06093-18.53439-21.06093-45.67284s18.39593-43.39763,21.06093-45.67284c2.66499,2.27521,21.06094,18.53439,21.06094,45.67284Z"/><path class="cls-35" d="M165.25332,153.65861c.00181,15.61914-.19085,30.92047-.55424,45.89067-2.665-2.27521-21.06093-18.53439-21.06093-45.67284s18.39593-43.39763,21.06093-45.67284c.36001,14.83115,.55244,29.98712,.55424,45.455Z"/><g class="cls-8"><path class="cls-13" d="M165.19992,167.35517c.03253-4.54071,.05396-9.10046,.05341-13.69653-.00012-1.11688-.00848-2.22009-.01062-3.33374-6.7619-3.45312-13.20215-7.5083-19.6048-11.60632-1.23224,4.58911-1.99976,9.64484-1.99976,15.1579,0,.03101,.00189,.06091,.00195,.09192,5.28619,6.68054,13.21796,10.55377,21.55981,13.38678Z"/><path class="cls-13" d="M149.98526,180.4192c5.58923,11.12152,13.08563,17.73999,14.71381,19.13007,.10938-4.50647,.19788-9.05292,.2757-13.61902-5.09808-1.57172-10.17456-3.3291-14.9895-5.51105Z"/><path class="cls-13" d="M165.09567,129.72517c-.09302-7.24573-.2243-14.42322-.39661-21.52155-1.35602,1.15771-6.78387,5.9433-11.78979,13.93317,4.04474,2.57275,8.07391,5.15601,12.1864,7.58838Z"/></g><path class="cls-11" d="M164.54167,244.92057c-.35847-13.05829-.98349-23.9962-1.55872-32.2448-.56946-8.16586-.76192-8.98991-.90503-13.48637-.33479-10.51877,.38586-16.45982,1.40717-31.39474,.35838-5.24057,.85675-13.09445,1.31792-22.80945,.22652,10.05643,.70631,18.21588,1.09913,23.77669,.90865,12.8632,1.908,19.6933,1.33016,31.42513-.20853,4.23392-.41241,4.84116-.99762,11.63895-.68018,7.90109-1.44434,19.15675-1.69302,33.0946Z"/><path class="cls-28" d="M164.69909,156.87166c1.36854,42.84049,1.37953,85.7216,.00022,128.56197-1.37975-42.84035-1.36875-85.72147-.00022-128.56197h0Z"/><path class="cls-1" d="M157.33093,181.69183c3.43292,7.52156,4.61495,9.62187,4.26425,9.86743-.58778,.41157-5.23575-4.55881-8.2592-11.19617-3.09165-6.78706-3.81065-13.83741-3.0972-14.07228,.53614-.1765,1.68759,3.55959,7.09215,15.40101Z"/><path class="cls-2" d="M179.51118,135.13617c1.72523,5.66109,2.91847,13.38123,1.33016,13.96672-1.61585,.59564-5.80304-6.30635-8.20267-11.74977-3.75702-8.52255-5.667-19.2197-3.7688-19.95247,1.902-.73424,7.81556,8.46326,10.64132,17.73552Z"/></g><g><path class="cls-26" d="M221.94006,122.5076c5.85672,10.71345,2.10342,21.10209,1.54237,22.57541-1.54307-.32306-12.31411-2.77169-18.17083-13.48514s-2.10343-21.10209-1.54237-22.57541c1.54307,.32305,12.31411,2.77169,18.17083,13.48514Z"/><path class="cls-27" d="M247.15817,131.6794c-5.96178,10.65534-16.75638,12.99794-18.30255,13.30581-.54654-1.47876-4.19749-11.90381,1.76429-22.55915s16.75638-12.99794,18.30255-13.30581c.54654,1.47876,4.19749,11.90381-1.76429,22.55915Z"/><path class="cls-37" d="M213.51004,127.05274c3.28554,6.01009,6.57106,12.02019,9.8566,18.03027-1.54308-.32306-12.31412-2.7717-18.17082-13.48514-5.85672-10.71346-2.10344-21.1021-1.54237-22.57541,3.28554,6.01009,6.57106,12.02019,9.8566,18.03027Z"/><path class="cls-36" d="M238.77323,127.05274c-3.34447,5.97749-6.68895,11.95499-10.03342,17.93248-.54654-1.47878-4.19749-11.90381,1.76428-22.55916,5.96178-10.65533,16.75638-12.99794,18.30255-13.3058-3.34447,5.97749-6.68895,11.95499-10.03342,17.93248Z"/><path class="cls-11" d="M226.1341,152.03687c-1.42738-3.03812-2.53739-5.62648-3.34711-7.59237-.80159-1.94617-.8469-2.16068-1.33322-3.20946-1.13766-2.45345-2.01999-3.71714-4.02974-6.99986-.70521-1.15189-1.75188-2.88338-3.00565-5.04601,1.11231,2.33306,1.93679,4.26574,2.48133,5.59173,1.25964,3.06725,1.79225,4.76524,3.31182,7.37402,.5484,.94149,.6729,1.05318,1.61938,2.53121,1.10009,1.71791,2.61327,4.19267,4.30319,7.35074Z"/><path class="cls-11" d="M225.30243,149.71581c1.83037-2.81378,3.44565-5.12085,4.69004-6.84476,1.23192-1.70661,1.39037-1.85813,2.02561-2.824,1.48604-2.25951,2.09532-3.67519,3.8268-7.11284,.60756-1.20625,1.52789-3.00808,2.70557-5.21306-1.39707,2.17454-2.60546,3.89349-3.44564,5.0549-1.9435,2.68655-3.10616,4.03378-4.52304,6.69973-.51134,.96212-.54069,1.12679-1.29835,2.70992-.88064,1.84008-2.18697,4.43-3.98098,7.53011Z"/><path class="cls-28" d="M226.18272,147.22797c1.36853,38.59774,1.37952,77.24056,.00022,115.83817-1.37971-38.59759-1.36873-77.24041-.00022-115.83817h0Z"/><path class="cls-1" d="M214.34596,139.00125c3.43058,2.80725,4.52105,3.53976,4.35854,3.73782-.27236,.33196-3.95078-.97598-6.97456-3.45457-3.09199-2.5345-4.82537-5.74048-4.44571-6.01684,.28531-.20768,1.66087,1.31406,7.06173,5.73359Z"/><path class="cls-1" d="M230.59392,137.33534c-.43757,4.41112-.44359,5.72477-.6985,5.69915-.42724-.04294-1.37532-3.8301-.98611-7.7205,.39798-3.97815,2.10747-7.19694,2.54785-7.03386,.33093,.12255-.17435,2.11065-.86323,9.05521Z"/><path class="cls-2" d="M215.70782,117.86519c1.12963,1.51731,1.91092,3.5865,.87095,3.74343-1.05801,.15965-3.79964-1.69026-5.37085-3.14923-2.45997-2.28426-3.71057-5.15135-2.46769-5.34776,1.24537-.19679,5.11738,2.26836,6.96759,4.75356Z"/><path class="cls-2" d="M247.93113,123.32229c-.67709,1.76631-2.0068,3.53374-2.69597,2.73925-.70112-.80827-.60586-4.11427-.21438-6.22235,.61292-3.30055,2.36545-5.89147,3.19656-4.94671,.83278,.94665,.8228,5.53679-.28621,8.42981Z"/></g><g><path class="cls-24" d="M77.01673,153.87644c0,27.13845-18.39594,43.39762-21.06094,45.67284-2.665-2.27521-21.06093-18.53439-21.06093-45.67284s18.39593-43.39763,21.06093-45.67284c2.66499,2.27521,21.06094,18.53439,21.06094,45.67284Z"/><path class="cls-34" d="M56.51003,153.65861c.00181,15.61914-.19085,30.92047-.55424,45.89067-2.665-2.27521-21.06093-18.53439-21.06093-45.67284s18.39593-43.39763,21.06093-45.67284c.36001,14.83115,.55244,29.98712,.55424,45.455Z"/><g class="cls-30"><path class="cls-13" d="M56.45664,167.35517c.03253-4.54071,.05396-9.10046,.05341-13.69653-.00012-1.11688-.00848-2.22009-.01062-3.33374-2.84615-1.21901-6.3002-2.98756-9.93712-5.56133-3.9272-2.77919-6.91264-5.67992-9.08251-8.10904-.51873,1.77525-1.51513,5.42917-2.08544,9.58153-.22351,1.62738-.49949,4.21951-.49949,7.64041,0,.03101,.00189,.06091,.00195,.09192,5.28619,6.68054,13.21796,10.55377,21.55981,13.38678Z"/><path class="cls-13" d="M39.17101,175.85877c2.09267,5.09814,5.44884,11.48633,10.91327,17.77475,1.97123,2.26848,3.96022,4.22868,5.87151,5.91574,.10938-4.50647,.19788-9.05292,.2757-13.61902-2.05737-.37793-4.72353-1.09628-7.60093-2.5267-4.70583-2.33937-7.75885-5.48076-9.45955-7.54477Z"/><path class="cls-13" d="M56.3524,129.72516c-.09302-7.24573-.2243-14.42322-.39661-21.52155-1.35602,1.15771-6.78387,5.9433-11.78979,13.93317,1.29037,1.36188,3.15321,3.05792,5.6655,4.61372,2.45652,1.52126,4.7532,2.4249,6.5209,2.97466Z"/></g><g class="cls-32"><path class="cls-22" d="M73.91013,135.06668c-.02248-.19193-.23166-.73401-.65001-1.81818-.51066-1.32338-1.37646-3.54843-2.81866-6.3692-.80144-1.5675-1.81549-3.38669-3.08412-5.35867-1.8,1.77863-4.02357,3.70569-6.71826,5.56241-1.48378,1.02235-2.92488,1.89557-4.28669,2.64212l.14703,20.59973c4.32481-2.4458,7.76582-4.81628,10.29166-6.69794,5.72099-4.26193,7.36332-6.47525,7.11903-8.56027Z"/><path class="cls-22" d="M72.13078,177.3111c1.47145-3.37294,3.01587-7.77454,3.96568-13.06189,.69897-3.89099,.92197-7.40469,.92027-10.37276-1.37451,1.97333-3.3145,4.30891-5.98574,6.54382-3.1049,2.59773-5.92291,3.99281-6.9519,4.47723-2.9572,1.39217-5.63723,2.08846-7.62244,2.45766-.06965,3.31693-.12923,6.65164-.17839,10.00398-.04175,2.84703-.07563,5.68156-.10182,8.50346,1.97275-.21556,5.02998-.79353,8.37001-2.49699,3.79785-1.93697,6.24909-4.45584,7.58434-6.05452Z"/></g><path class="cls-11" d="M55.7984,237.67169c-.35847-13.05829-.98349-23.9962-1.55872-32.2448-.56946-8.16586-.76192-8.98991-.90503-13.48637-.33479-10.51877,.38586-16.45982,1.40717-31.39474,.35838-5.24057,.85675-13.09445,1.31792-22.80945,.22652,10.05643,.70631,18.21588,1.09913,23.77669,.90865,12.8632,1.908,19.6933,1.33016,31.42513-.20853,4.23392-.41241,4.84116-.99762,11.63895-.68018,7.90109-1.44434,19.15675-1.69302,33.0946Z"/><path class="cls-28" d="M55.95579,149c1.36849,33.47742,1.37949,67.00685,.00022,100.48412-1.3797-33.47726-1.3687-67.00669-.00022-100.48412h0Z"/><g><path class="cls-9" d="M57.50765,174.84035c5.77787-2.14112,10.81106-5.21803,15.20596-9.24736-3.34504,4.77759-9.0768,8.26789-15.20596,9.24736Z"/><path class="cls-9" d="M57.50765,156.73973c6.24047-2.53937,11.67665-6.18858,16.42344-10.96736-3.61286,5.66621-9.80354,9.80571-16.42344,10.96736Z"/><path class="cls-9" d="M56.93112,136.9191c4.97851-2.00115,9.31537-4.87691,13.10224-8.64282-2.88226,4.46526-7.82104,7.72738-13.10224,8.64282Z"/><path class="cls-15" d="M54.55151,182.39846c-5.44036-2.14112-10.17955-5.21803-14.31773-9.24736,3.14964,4.77759,8.54659,8.26789,14.31773,9.24736Z"/><path class="cls-16" d="M54.55151,162.97221c-6.37392-2.71274-11.92634-6.61111-16.77462-11.71616,3.69012,6.05308,10.01317,10.4752,16.77462,11.71616Z"/><path class="cls-14" d="M54.92533,143.03998c-4.6877-2.00115-8.77122-4.87691-12.33689-8.64282,2.7139,4.46526,7.36418,7.72738,12.33689,8.64282Z"/></g><path class="cls-1" d="M48.26995,178.61661c3.43292,7.52156,4.61495,9.62187,4.26425,9.86743-.58778,.41157-5.23575-4.55881-8.2592-11.19617-3.09165-6.78706-3.81065-13.83741-3.0972-14.07228,.53614-.1765,1.68759,3.55959,7.09215,15.40101Z"/><path class="cls-2" d="M72.13946,137.25325c1.72523,5.66109,2.91847,13.38123,1.33016,13.96672-1.61585,.59564-5.80304-6.30635-8.20267-11.74977-3.75702-8.52255-5.667-19.2197-3.7688-19.95247,1.902-.73424,7.81556,8.46326,10.64132,17.73552Z"/></g><g><path class="cls-25" d="M130.88838,86.92485c0,27.13845-18.39594,43.39762-21.06094,45.67284-2.665-2.27521-21.06093-18.53439-21.06093-45.67284s18.39593-43.39763,21.06093-45.67284c2.66499,2.27521,21.06094,18.53439,21.06094,45.67284Z"/><path class="cls-39" d="M110.38168,86.70702c.00181,15.61914-.19085,30.92047-.55424,45.89067-2.665-2.27521-21.06093-18.53439-21.06093-45.67284s18.39593-43.39763,21.06093-45.67284c.36001,14.83115,.55244,29.98712,.55424,45.455Z"/><g class="cls-19"><path class="cls-13" d="M110.32828,100.40358c.03253-4.54071,.05396-9.10046,.05341-13.69653-.00012-1.11688-.00848-2.22009-.01062-3.33374-6.7619-3.45312-13.20215-7.5083-19.6048-11.60632-1.23224,4.58911-1.99976,9.64484-1.99976,15.1579,0,.03101,.00189,.06091,.00195,.09192,5.28619,6.68054,13.21796,10.55377,21.55981,13.38678Z"/><path class="cls-13" d="M95.11362,113.46761c5.58923,11.12152,13.08563,17.73999,14.71381,19.13007,.10938-4.50647,.19788-9.05292,.2757-13.61902-5.09808-1.57172-10.17456-3.3291-14.9895-5.51105Z"/><path class="cls-13" d="M110.22403,62.77358c-.09302-7.24573-.2243-14.42322-.39661-21.52155-1.35602,1.15771-6.78387,5.9433-11.78979,13.93317,4.04474,2.57275,8.07391,5.15601,12.1864,7.58838Z"/></g><g class="cls-12"><path class="cls-23" d="M127.56114,68.29991c-.02248-.19193-.23166-.73401-.65001-1.81818-.51066-1.32338-1.37646-3.54843-2.81866-6.3692-.80144-1.5675-1.81549-3.38669-3.08412-5.35867-1.8,1.77863-4.02357,3.70569-6.71826,5.56241-1.48378,1.02235-2.92488,1.89557-4.28669,2.64212l.14703,20.59973c4.32481-2.4458,7.76582-4.81628,10.29166-6.69794,5.72099-4.26193,7.36332-6.47525,7.11903-8.56027Z"/><path class="cls-23" d="M125.78179,110.54433c1.47145-3.37294,3.01587-7.77454,3.96568-13.06189,.69897-3.89099,.92197-7.40469,.92027-10.37276-1.37451,1.97333-3.3145,4.30891-5.98574,6.54382-3.1049,2.59773-5.92291,3.99281-6.9519,4.47723-2.9572,1.39217-5.63723,2.08846-7.62244,2.45766-.06965,3.31693-.12923,6.65164-.17839,10.00398-.04175,2.84703-.07563,5.68156-.10182,8.50346,1.97275-.21556,5.02998-.79353,8.37001-2.49699,3.79785-1.93697,6.24909-4.45584,7.58434-6.05452Z"/></g><path class="cls-11" d="M109.74171,165.2489c-.35847-13.05829-.98349-23.9962-1.55872-32.2448-.56946-8.16586-.76192-8.98991-.90503-13.48637-.33479-10.51877,.38586-16.45982,1.40717-31.39474,.35838-5.24057,.85675-13.09445,1.31792-22.80945,.22652,10.05643,.70631,18.21588,1.09913,23.77669,.90865,12.8632,1.908,19.6933,1.33016,31.42513-.20853,4.23392-.41241,4.84116-.99762,11.63895-.68018,7.90109-1.44434,19.15675-1.69302,33.0946Z"/><path class="cls-28" d="M109.82744,91.08092c1.36851,38.59774,1.37952,77.24057,.00022,115.83817-1.37973-38.59759-1.36873-77.24041-.00022-115.83817h0Z"/><path class="cls-1" d="M104.1195,115.81052c3.43292,7.52156,4.61495,9.62187,4.26425,9.86743-.58778,.41157-5.23575-4.55881-8.2592-11.19617-3.09165-6.78706-3.81065-13.83741-3.0972-14.07228,.53614-.1765,1.68759,3.55959,7.09215,15.40101Z"/><path class="cls-2" d="M123.9879,67.20051c1.72523,5.66109,2.91847,13.38123,1.33016,13.96672-1.61585,.59564-5.80304-6.30635-8.20267-11.74977-3.75702-8.52255-5.667-19.2197-3.7688-19.95247,1.902-.73424,7.81556,8.46326,10.64132,17.73552Z"/></g></g><g id="Capa_4"><g><circle class="cls-38" cx="110.00341" cy="142.07353" r="5.15443"/><circle class="cls-38" cx="55.6987" cy="210.19058" r="3.10775"/><circle class="cls-38" cx="164.97476" cy="223.44576" r="5.15443"/><circle class="cls-38" cx="226.15474" cy="155.7352" r="3.26541"/><g><path class="cls-6" d="M54.07139,195.00455c-1.44542,.64243-4.96122-4.32744-6.76167-6.87251-2.03309-2.87393-4.84239-6.89941-7.37133-13.13538-.00004-.00009-3.68016-9.07468-3.71338-17.79094-.00034-.0891-.00293-1.37791,.11085-1.38559,.2294-.01547,.36073,5.21573,1.71813,10.64131,.94182,3.76448,2.17051,6.40807,3.38083,8.97861,1.24162,2.63701,6.60019,14.01779,11.38953,14.57639,.29301,.03418,1.15719,.09471,1.70952,.72798,1.0233,1.17326,.55684,3.80708-.46249,4.26013Z"/><path class="cls-18" d="M64.38017,125.72516c.91789-.34531,3.2183,3.42693,4.43388,5.98575,2.3366,4.91858,3.29434,10.88867,2.21693,11.3064-.9758,.37834-3.63797-3.79128-5.09896-7.3159-1.80482-4.35411-2.5539-9.59927-1.55186-9.97624Z"/><path class="cls-10" d="M42.58318,168.65224c.18555-.06079,1.23735,2.42529,3.34096,7.39748,1.6888,3.99173,1.86623,4.67561,1.74584,4.73871-.19794,.10373-1.24374-1.44827-1.91211-2.57719-2.69052-4.54443-3.53285-9.44165-3.17469-9.55899Z"/></g><path class="cls-5" d="M107.73709,126.99597c-1.44542,.64243-4.96122-4.32744-6.76167-6.87251-2.03309-2.87393-4.84239-6.89941-7.37133-13.13538-.00004-.00009-3.68016-9.07468-3.71338-17.79094-.00034-.0891-.00293-1.37791,.11085-1.38559,.2294-.01547,.36073,5.21573,1.71813,10.64131,.94182,3.76448,2.17051,6.40807,3.38083,8.97861,1.24162,2.63701,6.60019,14.01779,11.38953,14.57639,.29301,.03418,1.15719,.09471,1.70952,.72798,1.0233,1.17326,.55684,3.80708-.46249,4.26013Z"/><path class="cls-18" d="M118.04586,57.71658c.91789-.34531,3.2183,3.42693,4.43388,5.98575,2.3366,4.91858,3.29434,10.88867,2.21693,11.3064-.9758,.37834-3.63797-3.79128-5.09896-7.3159-1.80482-4.35411-2.5539-9.59927-1.55186-9.97624Z"/><path class="cls-10" d="M96.24887,100.64366c.18555-.06079,1.23735,2.42529,3.34096,7.39748,1.6888,3.99173,1.86623,4.67561,1.74584,4.73871-.19794,.10373-1.24374-1.44827-1.91211-2.57719-2.69052-4.54443-3.53285-9.44165-3.17469-9.55899Z"/><path class="cls-5" d="M163.47657,196.35425c-1.44542,.64243-4.96122-4.32744-6.76167-6.87251-2.03309-2.87393-4.84239-6.89941-7.37133-13.13538-.00004-.00009-3.68016-9.07468-3.71338-17.79094-.00034-.0891-.00293-1.37791,.11085-1.38559,.2294-.01547,.36073,5.21573,1.71813,10.64131,.94182,3.76448,2.17051,6.40807,3.38083,8.97861,1.24162,2.63701,6.60019,14.01779,11.38953,14.57639,.29301,.03418,1.15719,.09471,1.70952,.72798,1.0233,1.17326,.55684,3.80708-.46249,4.26013Z"/><path class="cls-18" d="M172.53434,124.72516c.91789-.34531,3.2183,3.42693,4.43388,5.98575,2.3366,4.91858,3.29434,10.88867,2.21693,11.3064-.9758,.37834-3.63797-3.79128-5.09896-7.3159-1.80482-4.35411-2.5539-9.59927-1.55186-9.97624Z"/><path class="cls-10" d="M151.9264,172.36852c.18555-.06079,1.23735,2.42529,3.34096,7.39748,1.6888,3.99173,1.86623,4.67561,1.74584,4.73871-.19794,.10373-1.24374-1.44827-1.91211-2.57719-2.69052-4.54443-3.53285-9.44165-3.17469-9.55899Z"/><path class="cls-5" d="M221.05394,143.12102c-.44857,.54751-2.85351-.73197-4.08509-1.38719-1.39072-.73989-3.32331-1.78396-5.58843-3.76803-.00003-.00003-3.29624-2.88724-5.0626-6.36471-.01806-.03555-.27831-.5502-.23437-.57616,.08859-.05232,1.19322,2.01233,2.82705,3.90809,1.13361,1.31535,2.15646,2.12495,3.15727,2.90904,1.02669,.80437,5.45766,4.27585,7.48445,3.53587,.124-.04527,.48161-.19488,.82976-.05284,.64502,.26317,.9883,1.40981,.67196,1.79592Z"/><path class="cls-18" d="M210.03306,113.68375c.29746-.32264,1.9757,.72256,2.97626,1.50091,1.92327,1.49615,3.50686,3.68995,3.1602,4.07362-.31396,.34749-2.21674-.78379-3.50964-1.89884-1.59717-1.37747-2.95155-3.32346-2.62682-3.67568Z"/><path class="cls-10" d="M211.16158,134.89781c.06194-.06162,.9824,.7206,2.82332,2.28503,1.47791,1.25595,1.68638,1.49363,1.65095,1.54307-.05826,.08127-.78845-.32877-1.28267-.6456-1.98949-1.27541-3.31116-3.06356-3.1916-3.1825Z"/><path class="cls-5" d="M228.63739,142.61662c-.69838-.11511-.79127-2.83764-.83883-4.23186-.05372-1.57437-.11459-3.77012,.47276-6.72347,0-.00004,.85471-4.29777,2.98494-7.56502,.02177-.0334,.33763-.51593,.38206-.49084,.08958,.05061-1.14726,2.03888-1.97344,4.40124-.57324,1.63909-.76367,2.92959-.94301,4.18827-.18398,1.29122-.97801,6.86385,.67546,8.25004,.10116,.08481,.4094,.31988,.46025,.69244,.09421,.69024-.72766,1.56039-1.22016,1.47921Z"/><path class="cls-17" d="M247.65638,116.42634c.42809,.09652,.36094,2.07249,.18644,3.32807-.33542,2.41349-1.44489,4.8812-1.95043,4.77254-.45787-.09841-.42829-2.31188-.10814-3.98892,.3955-2.07171,1.40478-4.21706,1.87212-4.11169Z"/><path class="cls-10" d="M230.81982,129.9392c.08432,.02288-.13353,1.21101-.56925,3.58726-.34979,1.90769-.45157,2.20701-.51209,2.20101-.09951-.00987-.10903-.84726-.08143-1.43368,.11111-2.36059,1-4.39877,1.16276-4.3546Z"/></g></g></svg>